<svg width="136" height="20" viewBox="0 0 136 20" fill="none" xmlns="http://www.w3.org/2000/svg">
<path d="M29.2614 19.7277V1.61089C29.2624 1.32448 29.3749 1.05011 29.5743 0.847596C29.7737 0.645078 30.0439 0.530839 30.3259 0.529785H42.4958L42.4815 3.79508H33.3718V8.45685H41.2826V11.6557H33.3462V16.4174L42.6252 16.4319V19.7257L29.2614 19.7277Z" fill="#091B49"/>
<path d="M48.1154 19.9926C46.9412 20.0329 45.7914 19.647 44.8721 18.904C44.4334 18.5232 44.0874 18.0446 43.8611 17.5054C43.6348 16.9662 43.5345 16.3812 43.5679 15.7961C43.5327 15.1308 43.6651 14.4674 43.9526 13.8685C44.24 13.2697 44.673 12.7551 45.2107 12.3734C46.3176 11.5857 48.0593 11.1773 50.4497 11.1488L52.1279 11.1204V10.2972C52.145 10.03 52.1047 9.76225 52.0098 9.51248C51.9149 9.26271 51.7676 9.0369 51.5782 8.85069C51.107 8.46668 50.5057 8.28706 49.9048 8.35088C49.3505 8.35849 48.8053 8.49529 48.3113 8.75073C48.0586 8.88856 47.8375 9.07913 47.6625 9.3099C47.4875 9.54068 47.3626 9.80644 47.296 10.0897H44.1383C44.1313 9.43362 44.2896 8.7866 44.5982 8.21011C44.9067 7.63362 45.3553 7.14682 45.9012 6.79595C47.1677 6.04507 48.6191 5.67743 50.0845 5.73634C52.1515 5.73634 53.6157 6.12536 54.4769 6.90341C54.9129 7.30041 55.2562 7.79118 55.4818 8.33997C55.7075 8.88876 55.8097 9.48174 55.7811 10.0757V19.7282H52.2908V17.365C51.9466 18.2225 51.3381 18.9435 50.5565 19.4203C49.8033 19.8171 48.9636 20.014 48.1154 19.9926ZM49.3915 17.4435C49.8427 17.4444 50.288 17.3396 50.6928 17.1371C51.0976 16.9347 51.4509 16.6402 51.7253 16.2764C51.982 15.9566 52.1239 15.5575 52.1274 15.1449V13.1111L50.7597 13.1396C50.1622 13.1426 49.5672 13.2195 48.988 13.3685C48.4896 13.4844 48.0299 13.7314 47.6552 14.0848C47.4879 14.2593 47.3578 14.467 47.2731 14.6949C47.1884 14.9228 47.151 15.166 47.1631 15.4093C47.1484 15.692 47.1985 15.9743 47.3095 16.234C47.4205 16.4937 47.5894 16.7236 47.8029 16.9057C48.2531 17.2702 48.816 17.4607 49.3915 17.4435Z" fill="#091B49"/>
<path d="M62.9716 19.9925C62.0473 19.9953 61.1292 19.838 60.2569 19.5272C59.4144 19.2217 58.6588 18.7101 58.057 18.0378C57.4206 17.2946 57.02 16.3735 56.9078 15.3952H60.2053C60.2566 15.7188 60.3824 16.0256 60.5723 16.2906C60.7622 16.5557 61.0109 16.7715 61.2983 16.9207C61.8281 17.1794 62.4065 17.3191 62.9942 17.3302C63.582 17.3414 64.1651 17.2237 64.704 16.9851C64.9103 16.8922 65.0847 16.7391 65.2052 16.5453C65.3257 16.3514 65.3868 16.1257 65.3807 15.8966C65.3868 15.7269 65.3536 15.5581 65.2838 15.4039C65.214 15.2496 65.1094 15.1141 64.9786 15.0084C64.5903 14.7367 64.1427 14.5651 63.6744 14.5086L61.3052 14.0087C60.2542 13.8177 59.2646 13.3706 58.4212 12.7057C58.0567 12.3789 57.7693 11.973 57.5801 11.5181C57.3909 11.0632 57.3048 10.5709 57.3281 10.0777C57.3166 9.48508 57.4398 8.89774 57.688 8.36127C57.9362 7.8248 58.3028 7.35363 58.7593 6.98434C59.7325 6.15365 61.1403 5.73831 62.9829 5.73831C64.3943 5.66682 65.7902 6.06404 66.9595 6.86989C67.4466 7.2247 67.8402 7.69571 68.1057 8.24143C68.3713 8.78714 68.5006 9.3908 68.4822 9.99923H65.3025C65.2627 9.7512 65.1726 9.51428 65.0379 9.30348C64.9032 9.09268 64.7268 8.91261 64.52 8.77468C64.0505 8.46704 63.4988 8.31445 62.9406 8.33784C62.3766 8.31623 61.8164 8.43931 61.3116 8.69571C61.1134 8.79571 60.9476 8.95151 60.8342 9.14453C60.7208 9.33755 60.6644 9.55964 60.6718 9.78431C60.6718 9.96256 60.7205 10.1373 60.8127 10.2891C60.9048 10.4408 61.0366 10.5635 61.1935 10.6435C61.703 10.9003 62.2471 11.0788 62.8082 11.1733L65.0013 11.6731C65.8389 11.8411 66.6233 12.2149 67.2858 12.7617C67.7634 13.1651 68.1322 13.685 68.3577 14.2727C68.5343 14.7197 68.6321 15.1947 68.6466 15.6761C68.6719 16.2998 68.5401 16.9197 68.2637 17.4772C67.9874 18.0348 67.5756 18.5115 67.0673 18.8625C65.8521 19.665 64.4197 20.0602 62.9716 19.9925Z" fill="#091B49"/>
<path d="M73.3998 13.7484C73.3444 14.6463 73.6061 15.5349 74.138 16.2544C74.3975 16.5648 74.724 16.8101 75.092 16.9715C75.4601 17.133 75.8598 17.206 76.2602 17.1851C76.8555 17.1977 77.4436 17.0521 77.9665 16.7628C78.2205 16.6108 78.4424 16.4091 78.6191 16.1693C78.7958 15.9296 78.924 15.6567 78.9961 15.3663H82.4229C82.2952 16.2975 81.8948 17.1681 81.2737 17.8654C80.6629 18.5562 79.9057 19.0973 79.0591 19.4478C78.2013 19.8098 77.2811 19.9949 76.3522 19.9921C75.1271 20.0195 73.9156 19.727 72.8338 19.1424C71.8339 18.5794 71.014 17.7369 70.4715 16.7148C69.8866 15.5775 69.5961 14.3078 69.6275 13.0251C69.606 11.7481 69.8688 10.4825 70.3962 9.32301C70.8794 8.25465 71.6522 7.34813 72.6242 6.70948C73.6848 6.08947 74.8845 5.75659 76.1083 5.74276C77.332 5.72893 78.5387 6.03462 79.6127 6.6305C80.5467 7.21053 81.2826 8.06788 81.7211 9.0866C82.2195 10.2262 82.4649 11.4631 82.4401 12.7098V13.7479L73.3998 13.7484ZM73.3855 11.4427H78.8853C78.9059 10.6761 78.6671 9.92543 78.2086 9.31601C77.9604 9.01614 77.6455 8.78052 77.29 8.62861C76.9344 8.47669 76.5484 8.41285 76.1637 8.44233C75.6282 8.42474 75.1007 8.57747 74.6548 8.87917C74.2502 9.16663 73.927 9.5568 73.7172 10.0108C73.4954 10.4535 73.3816 10.944 73.3855 11.4407V11.4427Z" fill="#091B49"/>
<path d="M91.2595 19.9926C90.5016 20.021 89.7477 19.8668 89.0596 19.5428C88.5231 19.2631 88.0556 18.8642 87.6919 18.3757C87.3733 17.9302 87.1242 17.4374 86.9537 16.9147V19.7287H83.7596V0H86.8336C87.0319 0 87.222 0.0799889 87.3622 0.22237C87.5024 0.364751 87.5812 0.557862 87.5812 0.759219V7.86259C87.9502 7.23126 88.4815 6.71392 89.1182 6.36614C89.8883 5.9362 90.7569 5.72131 91.6355 5.74337C92.389 5.71034 93.1394 5.86098 93.8238 6.18271C94.5083 6.50444 95.1069 6.98791 95.5698 7.59269C96.5285 8.82423 97.001 10.5571 97.001 12.7983C97.001 14.9751 96.5145 16.7223 95.5417 18.0398C94.5663 19.3338 93.1346 19.9926 91.2595 19.9926ZM90.4273 17.2001C90.8213 17.2042 91.2107 17.1135 91.5636 16.9356C91.9165 16.7576 92.223 16.4973 92.4579 16.176C93.0076 15.4888 93.2828 14.3357 93.2828 12.7248C93.2828 11.2997 93.0219 10.247 92.5002 9.56696C92.2577 9.23645 91.9398 8.97062 91.5739 8.79225C91.2079 8.61388 90.8049 8.5283 90.3992 8.54284C88.5307 8.54284 87.5882 9.93682 87.5718 12.7248C87.5718 14.3432 87.8046 15.4958 88.2771 16.176C88.5191 16.5195 88.844 16.794 89.2205 16.9733C89.597 17.1526 90.0125 17.2307 90.4273 17.2001Z" fill="#091B49"/>
<path d="M103.281 19.9926C102.447 19.9907 101.621 19.8151 100.856 19.4767C100.094 19.1478 99.4271 18.628 98.917 17.9658C98.3918 17.2557 98.1206 16.3849 98.1483 15.4972V6.00073H101.956V15.0019C101.946 15.2922 101.995 15.5814 102.101 15.8514C102.206 16.1213 102.366 16.3661 102.569 16.5703C102.814 16.7874 103.1 16.953 103.408 17.0575C103.717 17.162 104.043 17.2033 104.367 17.1791C105.01 17.2133 105.643 17.004 106.144 16.5918C106.368 16.3816 106.544 16.1237 106.658 15.8365C106.773 15.5493 106.824 15.2399 106.807 14.9304V6.00073H110.572V19.7277H107.258V17.0067C107.154 17.7043 106.845 18.3536 106.37 18.8685C105.96 19.2833 105.453 19.5841 104.896 19.7421C104.373 19.9046 103.829 19.989 103.281 19.9926Z" fill="#091B49"/>
<path d="M111.82 19.7277V17.9283C111.82 17.6932 111.897 17.4649 112.038 17.2786L118.469 8.71473H112.158V6.00073H123.08V8.16343L116.417 17.0142H123.115V19.7207H111.82V19.7277Z" fill="#091B49"/>
<path d="M124.039 19.7277V17.9283C124.039 17.6932 124.116 17.4649 124.257 17.2786L130.688 8.71473H124.377V6.00073H135.299V8.16343L128.636 17.0142H135.334V19.7207H124.039V19.7277Z" fill="#091B49"/>
<path d="M2.39727 8.52832H18.3252L16.5363 11.8366C16.3525 12.1772 16.082 12.4612 15.7529 12.659C15.4239 12.8568 15.0485 12.961 14.6661 12.9607H0L2.39727 8.52832Z" fill="#85E6C4"/>
<path d="M8.89153 15.1165H24.8195L23.0286 18.4247C22.8448 18.7653 22.5743 19.0494 22.2452 19.2471C21.9162 19.4449 21.5408 19.5491 21.1584 19.5488H6.49426L8.89153 15.1165Z" fill="#6D44E5"/>
<path d="M8.89153 1.93335H24.8195L23.0305 5.24162C22.8468 5.58218 22.5762 5.86625 22.2472 6.06403C21.9181 6.26182 21.5427 6.36602 21.1604 6.36571H6.49426L8.89153 1.93335Z" fill="#517CE3"/>
</svg>
